<svg xmlns="http://www.w3.org/2000/svg" width="64" height="64" viewBox="0 0 64 64" role="img" aria-label="Design document exporter icon">
  <defs>
    <linearGradient id="bg" x1="10" y1="6" x2="54" y2="58" gradientUnits="userSpaceOnUse">
      <stop offset="0" stop-color="#1f7fd1"/>
      <stop offset="1" stop-color="#13a894"/>
    </linearGradient>
    <linearGradient id="paper" x1="20" y1="13" x2="45" y2="52" gradientUnits="userSpaceOnUse">
      <stop offset="0" stop-color="#ffffff"/>
      <stop offset="1" stop-color="#eaf4fb"/>
    </linearGradient>
  </defs>

  <rect width="64" height="64" rx="14" fill="url(#bg)"/>
  <path d="M18 12h21l9 9v29a4 4 0 0 1-4 4H18a4 4 0 0 1-4-4V16a4 4 0 0 1 4-4Z" fill="url(#paper)"/>
  <path d="M39 12v9h9" fill="#cde6f4"/>
  <path d="M39 12v7a2 2 0 0 0 2 2h7" fill="none" stroke="#b7d8ea" stroke-width="1.5"/>

  <rect x="21" y="23" width="18" height="3" rx="1.5" fill="#1f7fd1"/>
  <rect x="21" y="31" width="21" height="3" rx="1.5" fill="#7fa7be"/>
  <rect x="21" y="39" width="14" height="3" rx="1.5" fill="#7fa7be"/>

  <path d="M42 37v8" fill="none" stroke="#0f5e73" stroke-width="4" stroke-linecap="round"/>
  <path d="M36 43l6 6 6-6" fill="none" stroke="#0f5e73" stroke-width="4" stroke-linecap="round" stroke-linejoin="round"/>
  <path d="M34 52h16" fill="none" stroke="#0f5e73" stroke-width="4" stroke-linecap="round"/>
</svg>
